<svg width="89.209534" height="88.572266" viewBox="0 0 89.2095 88.5723" fill="none" xmlns="http://www.w3.org/2000/svg" xmlns:xlink="http://www.w3.org/1999/xlink">
	<desc>
			Created with Pixso.
	</desc>
	<defs>
		<radialGradient id="paint_radial_254_423_0" cx="0.000000" cy="0.000000" r="1.000000" gradientUnits="userSpaceOnUse" gradientTransform="translate(30.6681 21.9444) rotate(0) scale(62.1406 61.2673)">
			<stop stop-color="#442F55" stop-opacity="0.980392"/>
			<stop offset="1.000000" stop-color="#12002C"/>
		</radialGradient>
	</defs>
	<path id="Vector" d="M3.71558 3.7832L85.4761 3.7832L85.4761 84.7891L3.71558 84.7891L3.71558 3.7832Z" fill="url(#paint_radial_254_423_0)" fill-opacity="1.000000" fill-rule="nonzero"/>
	<path id="Vector" d="M3.71558 3.7832L85.4761 3.7832L85.4761 84.7891L3.71558 84.7891L3.71558 3.7832ZM0 88.5723L89.2095 88.5723L89.2095 0L0 0L0 88.5723ZM63.1112 42.6953C65.0047 42.6953 65.6835 42.6953 65.8622 42.6211C65.8622 42.3496 65.9336 42.166 65.9336 41.9844C65.9336 39.9473 64.969 36.1641 61.1105 36.1641C57.5378 36.1641 56.0194 39.3477 55.6443 42.7129L63.1112 42.7129L63.1112 42.6953ZM55.5729 47.8789C55.6443 52.9902 58.0201 56.4297 63.6828 56.4297C65.88 56.4297 67.7735 56.1191 69.7385 55.2637C70.0064 55.1562 70.1851 55.1914 70.1851 55.5371L70.1851 60.2676C70.1851 60.6484 70.0779 60.8301 69.8099 61.0312C67.845 62.0137 65.3798 62.4688 62.3431 62.4688C52.5361 62.4688 48.8562 55.082 48.8562 46.8789C48.8562 37.9473 53.3935 30.6328 61.3784 30.6328C69.4884 30.6328 72.3108 37.5645 72.3108 43.2031C72.3108 45.0234 72.2036 46.4961 72.0071 47.2246C71.9357 47.5332 71.8285 47.6426 71.5248 47.7148C70.7746 47.8242 68.5952 47.9883 65.3262 47.9883L55.5907 47.9883L55.5907 47.8789L55.5729 47.8789ZM35.6374 44.0215C34.6013 39.8203 32.0647 30.6699 31.1358 26.2324L31.0644 26.2324C30.2784 30.6523 28.2419 38.1465 26.7236 44.0215L35.6374 44.0215ZM25.2052 50.1523L22.2756 61.4668C22.2041 61.7773 22.097 61.8867 21.7218 61.8867L16.2378 61.8867C15.8626 61.8867 15.7912 61.7773 15.8626 61.3223L26.4199 23.7402C26.5985 23.0664 26.7236 22.5215 26.795 20.6289C26.795 20.3555 26.9022 20.2461 27.0987 20.2461L34.905 20.2461C35.1729 20.2461 35.2801 20.3203 35.3516 20.6289L47.1592 61.3945C47.2307 61.7051 47.1592 61.8867 46.8555 61.8867L40.7284 61.8867C40.4247 61.8867 40.2461 61.7773 40.1747 61.5039L37.12 50.1523L25.2052 50.1523Z" fill="#D8A1FF" fill-opacity="1.000000" fill-rule="nonzero"/>
</svg>
