<svg width="89.209473" height="88.572266" viewBox="0 0 89.2095 88.5723" fill="none" xmlns="http://www.w3.org/2000/svg" xmlns:xlink="http://www.w3.org/1999/xlink">
	<desc>
			Created with Pixso.
	</desc>
	<defs>
		<radialGradient id="paint_radial_167_575_0" cx="0.000000" cy="0.000000" r="1.000000" gradientUnits="userSpaceOnUse" gradientTransform="translate(30.6702 21.9605) rotate(0) scale(62.1406 61.2673)">
			<stop stop-color="#423325" stop-opacity="0.980392"/>
			<stop offset="1.000000" stop-color="#1C0A00"/>
		</radialGradient>
	</defs>
	<path id="Vector" d="M3.71558 3.7832L85.4761 3.7832L85.4761 84.7891L3.71558 84.7891L3.71558 3.7832Z" fill="url(#paint_radial_167_575_0)" fill-opacity="1.000000" fill-rule="nonzero"/>
	<path id="Vector" d="M3.71558 3.7832L85.4761 3.7832L85.4761 84.7891L3.71558 84.7891L3.71558 3.7832ZM0 88.5723L89.2095 88.5723L89.2095 0L0 0L0 88.5723ZM58.4309 31.5801C58.4309 31.2695 58.5381 31.125 58.8774 31.125L64.7188 31.125C65.0225 31.125 65.1655 31.2344 65.1655 31.5801L65.1655 61.4492C65.1655 61.7578 65.094 61.9043 64.7188 61.9043L58.949 61.9043C58.574 61.9043 58.4668 61.7227 58.4668 61.4141L58.4668 31.5801L58.4309 31.5801ZM58.02 22.9746C58.02 20.5566 59.6992 19.1191 61.8071 19.1191C64.0757 19.1191 65.5942 20.666 65.5942 22.9746C65.5942 25.4668 64.0044 26.832 61.7356 26.832C59.592 26.8496 58.02 25.4863 58.02 22.9746ZM41.3 44.0215C40.2639 39.8203 37.7988 30.6699 36.8699 26.2324L36.7986 26.2324C36.0125 30.6523 34.0476 38.1465 32.4934 44.0215L41.3 44.0215ZM30.9751 50.1523L28.0454 61.5039C27.9739 61.8125 27.8667 61.8867 27.4917 61.8867L22.0254 61.8867C21.6504 61.8867 21.5789 61.7773 21.6504 61.3223L32.2075 23.7031C32.3862 23.0293 32.5112 22.4121 32.5828 20.5566C32.5828 20.2832 32.6899 20.1738 32.8865 20.1738L40.6926 20.1738C40.9607 20.1738 41.0679 20.2461 41.1392 20.5566L52.9648 61.3945C53.0361 61.7051 52.9648 61.8867 52.6611 61.8867L46.4983 61.8867C46.1946 61.8867 46.0159 61.8125 45.9446 61.541L42.8899 50.1523L30.9751 50.1523Z" fill="#FF7F18" fill-opacity="1.000000" fill-rule="nonzero"/>
</svg>
