<svg width="97.073242" height="96.412109" viewBox="0 0 97.0732 96.4121" fill="none" xmlns="http://www.w3.org/2000/svg" xmlns:xlink="http://www.w3.org/1999/xlink">
	<desc>
			Created with Pixso.
	</desc>
	<defs>
		<filter id="filter_167_561_dd" x="0.000000" y="0.000000" width="97.073242" height="96.412109" filterUnits="userSpaceOnUse" color-interpolation-filters="sRGB">
			<feFlood flood-opacity="0" result="BackgroundImageFix"/>
			<feColorMatrix in="SourceAlpha" type="matrix" values="0 0 0 0 0 0 0 0 0 0 0 0 0 0 0 0 0 0 127 0" result="hardAlpha"/>
			<feOffset dx="0" dy="4"/>
			<feGaussianBlur stdDeviation="1.33333"/>
			<feComposite in2="hardAlpha" operator="out" k2="-1" k3="1"/>
			<feColorMatrix type="matrix" values="0 0 0 0 0 0 0 0 0 0 0 0 0 0 0 0 0 0 0.25 0"/>
			<feBlend mode="normal" in2="BackgroundImageFix" result="effect_dropShadow_1"/>
			<feBlend mode="normal" in="SourceGraphic" in2="effect_dropShadow_1" result="shape"/>
		</filter>
		<radialGradient id="paint_radial_167_562_0" cx="0.000000" cy="0.000000" r="1.000000" gradientUnits="userSpaceOnUse" gradientTransform="translate(34.6173 21.9191) rotate(0) scale(62.0565 61.1565)">
			<stop stop-color="#34364E" stop-opacity="0.980392"/>
			<stop offset="1.000000" stop-color="#0C0824"/>
		</radialGradient>
	</defs>
	<g filter="url(#filter_167_561_dd)">
		<path id="Vector" d="M7.71289 3.7793L89.3782 3.7793L89.3782 84.6348L7.71289 84.6348L7.71289 3.7793Z" fill="url(#paint_radial_167_562_0)" fill-opacity="1.000000" fill-rule="nonzero"/>
		<path id="Vector" d="M7.71289 3.7793L89.3782 3.7793L89.3782 84.6348L7.71289 84.6348L7.71289 3.7793ZM4 88.4121L93.0732 88.4121L93.0732 0L4 0L4 88.4121ZM64.0664 36.2852C61.1389 36.2852 60.1394 37.793 60.1394 39.0469C60.1394 40.4082 60.7998 41.3535 64.7446 43.4258C70.564 46.2969 72.3848 49.0586 72.3848 53.0918C72.3848 59.1426 67.8506 62.3945 61.728 62.3945C58.4971 62.3945 55.7124 61.7227 54.1238 60.7773C53.856 60.668 53.8203 60.4688 53.8203 60.1777L53.8203 54.5996C53.8203 54.2188 53.9988 54.1094 54.2666 54.291C56.605 55.8359 59.2825 56.5254 61.728 56.5254C64.6555 56.5254 65.8872 55.2715 65.8872 53.582C65.8872 52.2188 65.0303 51.0195 61.2817 49.0391C56.0159 46.4785 53.8203 43.8789 53.8203 39.5195C53.8203 34.6484 57.5688 30.5977 64.0664 30.5977C67.2617 30.5977 69.4929 31.0879 70.7068 31.6523C71.0103 31.834 71.0815 32.1426 71.0815 32.4141L71.0815 37.5938C71.0815 37.9023 70.9031 38.084 70.5283 37.9746C68.886 36.9199 66.4763 36.2852 64.0664 36.2852ZM32.1499 40.7734C33.0068 40.8457 33.6672 40.8457 35.1489 40.8457C39.4866 40.8457 43.5742 39.3008 43.5742 33.2871C43.5742 28.4902 40.6467 26.0742 35.7021 26.0742C34.2207 26.0742 32.8105 26.1465 32.1321 26.1816L32.1499 40.7734ZM25.5276 20.7129C25.5276 20.4414 26.0452 20.2598 26.3486 20.2598C28.7227 20.1504 32.2571 20.0781 35.9165 20.0781C46.1982 20.0781 50.2146 25.8184 50.2146 33.1406C50.2146 42.7344 43.3779 46.8594 34.9883 46.8594C33.5781 46.8594 33.0962 46.7871 32.0964 46.7871L32.0964 61.2852C32.0964 61.5957 31.9893 61.7402 31.6501 61.7402L25.9739 61.7402C25.6704 61.7402 25.5276 61.6309 25.5276 61.2852L25.5276 20.7129Z" fill="#31C5F0" fill-opacity="1.000000" fill-rule="nonzero"/>
	</g>
</svg>
