<svg width="166.460693" height="26.000000" viewBox="0 0 166.461 26" fill="none" xmlns="http://www.w3.org/2000/svg" xmlns:xlink="http://www.w3.org/1999/xlink">
	<desc>
			Created with Pixso.
	</desc>
	<defs/>
	<path id="Star" d="M12.0852 2.91797L10.3342 8.29297C10.2 8.70508 9.81641 8.98242 9.3833 8.98242L3.72266 8.98242C2.75317 8.98242 2.35083 10.2246 3.13599 10.793L7.71069 14.1074C8.06226 14.3613 8.20923 14.8145 8.07495 15.2266L6.32642 20.5938C6.02637 21.5137 7.07959 22.2812 7.86377 21.7129L12.4495 18.3906C12.7993 18.1367 13.2727 18.1367 13.6228 18.3906L18.2083 21.7129C18.9927 22.2812 20.0459 21.5137 19.7458 20.5938L17.9973 15.2266C17.8628 14.8145 18.01 14.3613 18.3613 14.1074L22.9363 10.793C23.7212 10.2246 23.3188 8.98242 22.3496 8.98242L16.6887 8.98242C16.2559 8.98242 15.8721 8.70508 15.738 8.29297L13.9868 2.91797C13.687 1.99805 12.385 1.99805 12.0852 2.91797Z" fill="#070707" fill-opacity="1.000000" fill-rule="evenodd"/>
	<path id="Star" d="M47.1824 2.91797L45.4314 8.29297C45.2971 8.70508 44.9136 8.98242 44.4805 8.98242L38.8198 8.98242C37.8503 8.98242 37.448 10.2246 38.2332 10.793L42.8079 14.1074C43.1594 14.3613 43.3064 14.8145 43.1721 15.2266L41.4236 20.5938C41.1235 21.5137 42.1768 22.2812 42.9609 21.7129L47.5466 18.3906C47.8965 18.1367 48.3699 18.1367 48.72 18.3906L53.3054 21.7129C54.0898 22.2812 55.1431 21.5137 54.843 20.5938L53.0945 15.2266C52.96 14.8145 53.1072 14.3613 53.4585 14.1074L58.0334 10.793C58.8184 10.2246 58.416 8.98242 57.4468 8.98242L51.7859 8.98242C51.353 8.98242 50.9692 8.70508 50.8352 8.29297L49.084 2.91797C48.7842 1.99805 47.4822 1.99805 47.1824 2.91797Z" fill="#070707" fill-opacity="1.000000" fill-rule="evenodd"/>
	<path id="Star" d="M82.2795 2.91797L80.5286 8.29297C80.3943 8.70508 80.0107 8.98242 79.5776 8.98242L73.917 8.98242C72.9475 8.98242 72.5452 10.2246 73.3303 10.793L77.905 14.1074C78.2566 14.3613 78.4036 14.8145 78.2693 15.2266L76.5208 20.5938C76.2207 21.5137 77.2739 22.2812 78.0581 21.7129L82.6438 18.3906C82.9937 18.1367 83.467 18.1367 83.8171 18.3906L88.4026 21.7129C89.187 22.2812 90.2402 21.5137 89.9402 20.5938L88.1917 15.2266C88.0571 14.8145 88.2043 14.3613 88.5557 14.1074L93.1306 10.793C93.9155 10.2246 93.5132 8.98242 92.5439 8.98242L86.8831 8.98242C86.4502 8.98242 86.0664 8.70508 85.9324 8.29297L84.1812 2.91797C83.8813 1.99805 82.5793 1.99805 82.2795 2.91797Z" fill="#070707" fill-opacity="1.000000" fill-rule="evenodd"/>
	<path id="Star" d="M117.377 2.91797L115.626 8.29297C115.491 8.70508 115.108 8.98242 114.675 8.98242L109.014 8.98242C108.045 8.98242 107.642 10.2246 108.427 10.793L113.002 14.1074C113.354 14.3613 113.501 14.8145 113.366 15.2266L111.618 20.5938C111.318 21.5137 112.371 22.2812 113.155 21.7129L117.741 18.3906C118.091 18.1367 118.564 18.1367 118.914 18.3906L123.5 21.7129C124.284 22.2812 125.337 21.5137 125.037 20.5938L123.289 15.2266C123.154 14.8145 123.302 14.3613 123.653 14.1074L128.228 10.793C129.013 10.2246 128.61 8.98242 127.641 8.98242L121.98 8.98242C121.547 8.98242 121.164 8.70508 121.03 8.29297L119.278 2.91797C118.979 1.99805 117.677 1.99805 117.377 2.91797Z" fill="#E5E5E5" fill-opacity="1.000000" fill-rule="evenodd"/>
	<path id="Star" d="M152.474 2.91797L150.723 8.29297C150.589 8.70508 150.205 8.98242 149.772 8.98242L144.111 8.98242C143.142 8.98242 142.74 10.2246 143.525 10.793L148.099 14.1074C148.451 14.3613 148.598 14.8145 148.464 15.2266L146.715 20.5938C146.415 21.5137 147.468 22.2812 148.252 21.7129L152.838 18.3906C153.188 18.1367 153.661 18.1367 154.011 18.3906L158.597 21.7129C159.381 22.2812 160.435 21.5137 160.135 20.5938L158.386 15.2266C158.251 14.8145 158.399 14.3613 158.75 14.1074L163.325 10.793C164.11 10.2246 163.708 8.98242 162.738 8.98242L157.077 8.98242C156.645 8.98242 156.261 8.70508 156.127 8.29297L154.375 2.91797C154.076 1.99805 152.774 1.99805 152.474 2.91797Z" fill="#E5E5E5" fill-opacity="1.000000" fill-rule="evenodd"/>
</svg>
