<svg width="166.460693" height="26.000000" viewBox="0 0 166.461 26" fill="none" xmlns="http://www.w3.org/2000/svg" xmlns:xlink="http://www.w3.org/1999/xlink">
	<desc>
			Created with Pixso.
	</desc>
	<defs/>
	<path id="Star" d="M12.0852 2.91797L10.3342 8.29297C10.2 8.70508 9.81641 8.98242 9.3833 8.98242L3.72266 8.98242C2.75317 8.98242 2.35083 10.2246 3.13599 10.793L7.71069 14.1074C8.06226 14.3613 8.20923 14.8145 8.07495 15.2266L6.32642 20.5938C6.02637 21.5137 7.07959 22.2812 7.86377 21.7129L12.4495 18.3906C12.7993 18.1367 13.2727 18.1367 13.6228 18.3906L18.2083 21.7129C18.9927 22.2812 20.0459 21.5137 19.7458 20.5938L17.9973 15.2266C17.8628 14.8145 18.01 14.3613 18.3613 14.1074L22.9363 10.793C23.7212 10.2246 23.3188 8.98242 22.3496 8.98242L16.6887 8.98242C16.2559 8.98242 15.8721 8.70508 15.738 8.29297L13.9868 2.91797C13.687 1.99805 12.385 1.99805 12.0852 2.91797Z" fill="#070707" fill-opacity="1.000000" fill-rule="evenodd"/>
	<path id="Star" d="M47.1821 2.91797L45.4312 8.29297C45.2969 8.70508 44.9133 8.98242 44.4802 8.98242L38.8196 8.98242C37.8501 8.98242 37.4478 10.2246 38.2329 10.793L42.8076 14.1074C43.1592 14.3613 43.3062 14.8145 43.1719 15.2266L41.4233 20.5938C41.1233 21.5137 42.1765 22.2812 42.9607 21.7129L47.5464 18.3906C47.8962 18.1367 48.3696 18.1367 48.7197 18.3906L53.3052 21.7129C54.0896 22.2812 55.1428 21.5137 54.8428 20.5938L53.0942 15.2266C52.9597 14.8145 53.1069 14.3613 53.4583 14.1074L58.0332 10.793C58.8181 10.2246 58.4158 8.98242 57.4465 8.98242L51.7856 8.98242C51.3528 8.98242 50.969 8.70508 50.835 8.29297L49.0837 2.91797C48.7839 1.99805 47.4819 1.99805 47.1821 2.91797Z" fill="#070707" fill-opacity="1.000000" fill-rule="evenodd"/>
	<path id="Star" d="M82.2793 2.91797L80.5283 8.29297C80.394 8.70508 80.0105 8.98242 79.5774 8.98242L73.9167 8.98242C72.9473 8.98242 72.5449 10.2246 73.3301 10.793L77.9048 14.1074C78.2563 14.3613 78.4033 14.8145 78.269 15.2266L76.5205 20.5938C76.2205 21.5137 77.2737 22.2812 78.0579 21.7129L82.6436 18.3906C82.9934 18.1367 83.4668 18.1367 83.8169 18.3906L88.4023 21.7129C89.1868 22.2812 90.24 21.5137 89.9399 20.5938L88.1914 15.2266C88.0569 14.8145 88.2041 14.3613 88.5554 14.1074L93.1304 10.793C93.9153 10.2246 93.5129 8.98242 92.5437 8.98242L86.8828 8.98242C86.45 8.98242 86.0662 8.70508 85.9321 8.29297L84.1809 2.91797C83.8811 1.99805 82.5791 1.99805 82.2793 2.91797Z" fill="#070707" fill-opacity="1.000000" fill-rule="evenodd"/>
	<path id="Star" d="M117.376 2.91797L115.625 8.29297C115.491 8.70508 115.108 8.98242 114.675 8.98242L109.014 8.98242C108.044 8.98242 107.642 10.2246 108.427 10.793L113.002 14.1074C113.354 14.3613 113.5 14.8145 113.366 15.2266L111.618 20.5938C111.318 21.5137 112.371 22.2812 113.155 21.7129L117.741 18.3906C118.091 18.1367 118.564 18.1367 118.914 18.3906L123.5 21.7129C124.284 22.2812 125.337 21.5137 125.037 20.5938L123.289 15.2266C123.154 14.8145 123.301 14.3613 123.653 14.1074L128.228 10.793C129.012 10.2246 128.61 8.98242 127.641 8.98242L121.98 8.98242C121.547 8.98242 121.163 8.70508 121.029 8.29297L119.278 2.91797C118.978 1.99805 117.676 1.99805 117.376 2.91797Z" fill="#070707" fill-opacity="1.000000" fill-rule="evenodd"/>
	<path id="Star" d="M152.474 2.91797L150.723 8.29297C150.588 8.70508 150.205 8.98242 149.772 8.98242L144.111 8.98242C143.142 8.98242 142.739 10.2246 143.524 10.793L148.099 14.1074C148.451 14.3613 148.598 14.8145 148.463 15.2266L146.715 20.5938C146.415 21.5137 147.468 22.2812 148.252 21.7129L152.838 18.3906C153.188 18.1367 153.661 18.1367 154.011 18.3906L158.597 21.7129C159.381 22.2812 160.434 21.5137 160.134 20.5938L158.386 15.2266C158.251 14.8145 158.398 14.3613 158.75 14.1074L163.325 10.793C164.11 10.2246 163.707 8.98242 162.738 8.98242L157.077 8.98242C156.644 8.98242 156.26 8.70508 156.126 8.29297L154.375 2.91797C154.075 1.99805 152.773 1.99805 152.474 2.91797Z" fill="#E5E5E5" fill-opacity="1.000000" fill-rule="evenodd"/>
</svg>
